<svg xmlns="http://www.w3.org/2000/svg" viewBox="0 0 100 100" width="32" height="32">
  <circle cx="50" cy="50" r="38" fill="#42a5f5" opacity="0.15"/>
  <circle cx="50" cy="52" r="28" fill="#1976d2"/>
  <circle cx="50" cy="52" r="23" fill="#42a5f5"/>
  <line x1="26" y1="40" x2="12" y2="30" stroke="#1976d2" stroke-width="4" stroke-linecap="round"/>
  <line x1="74" y1="40" x2="88" y2="30" stroke="#1976d2" stroke-width="4" stroke-linecap="round"/>
  <line x1="32" y1="62" x2="20" y2="76" stroke="#1976d2" stroke-width="4" stroke-linecap="round"/>
  <line x1="68" y1="62" x2="80" y2="76" stroke="#1976d2" stroke-width="4" stroke-linecap="round"/>
  <circle cx="12" cy="30" r="5" fill="#90caf9"/>
  <circle cx="88" cy="30" r="5" fill="#90caf9"/>
  <circle cx="20" cy="76" r="5" fill="#90caf9"/>
  <circle cx="80" cy="76" r="5" fill="#90caf9"/>
  <ellipse cx="38" cy="44" rx="6" ry="7" fill="#fff"/>
  <ellipse cx="38" cy="44" rx="3.5" ry="4.5" fill="#0d47a1"/>
  <circle cx="40" cy="42" r="1.5" fill="#fff" opacity="0.9"/>
  <path d="M54 44 Q59 38 64 44" fill="none" stroke="#fff" stroke-width="2.5" stroke-linecap="round"/>
  <path d="M42 60 Q50 68 58 60" fill="none" stroke="#fff" stroke-width="2.5" stroke-linecap="round" opacity="0.85"/>
  <ellipse cx="30" cy="54" rx="5" ry="3.5" fill="#f8bbd0" opacity="0.35"/>
  <ellipse cx="70" cy="54" rx="5" ry="3.5" fill="#f8bbd0" opacity="0.35"/>
</svg>
